<?xml version="1.0" encoding="utf-8"?>
<!-- Generator: Adobe Illustrator 26.2.1, SVG Export Plug-In . SVG Version: 6.00 Build 0)  -->
<svg version="1.1" id="Layer_1" xmlns="http://www.w3.org/2000/svg" xmlns:xlink="http://www.w3.org/1999/xlink" x="0px" y="0px"
	 viewBox="0 0 2000 1500" style="enable-background:new 0 0 2000 1500;" xml:space="preserve">
<style type="text/css">
	.st0{fill:#FFFFFF;}
	.st1{display:none;fill:#36716F;}
	.st2{display:none;fill:#53B0AE;}
</style>
<path class="st0" d="M505,801L505,801c-1.5,0-2.9,0.3-4.2,0.8c2.7,1.5,4.2,2.2,4.2,2.2s1.5-0.7,4.2-2.2
	C507.9,801.2,506.5,801,505,801z"/>
<path class="st0" d="M684.5,936.1c-10.9,6.3-22.2,11.3-37,11.3c-34.1,0-62.7-24.6-62.7-62.7s28.5-62.3,62.7-62.3
	c14.8,0,26,4.9,37,11.3c5.6,3.2,12.7,2.5,16.5-3.2s2.1-12.7-3.5-16.2c-14.1-9.5-31.3-15.1-50-15.1c-46.8,0-85.9,33.4-85.9,85.5
	s39.1,85.9,85.9,85.9c18.7,0,35.9-5.6,50-15.1c5.6-3.5,7.4-10.6,3.5-16.2S690.2,933,684.5,936.1z"/>
<path class="st0" d="M824.3,799.2c-19,0-44.4,9.2-54.6,30.6v-106c0-6.7-4.9-12-11.6-12s-11.6,5.3-11.6,12v233c0,6.7,4.9,12,11.6,12
	s11.6-5.3,11.6-12v-79.5c0-40.1,28.5-54.9,54.6-54.9c25.3,0,40.1,18.6,40.1,48.9v85.5c0,6.7,4.9,12,11.6,12s11.6-5.3,11.6-12v-85.5
	C888,826.7,864.4,799.2,824.3,799.2z"/>
<path class="st0" d="M953.5,801c-0.2,0-0.4,0-0.6,0c-1.9,0.1-3.7,0.6-5.2,1.5c3.2,2,5.2,3,5.2,3s2.3-1.1,5.8-3.3
	C957.2,801.4,955.4,801,953.5,801z"/>
<path class="st0" d="M1106.2,799.2c-23.9,0-49.6,9.9-62,30.6v-106c0-6.7-4.9-12-11.6-12c-6.7,0-11.6,5.3-11.6,12v233
	c0,6.7,4.9,12,11.6,12c6.7,0,11.6-5.3,11.6-12V939c12.3,20.8,38,31.7,62,31.7c46.8,0,84.1-34.1,84.1-86.2
	C1190.4,832.3,1153.1,799.2,1106.2,799.2z M1106.2,947c-33.4,0-62-22.2-62-62.7c0-40.5,32.4-61.6,62-61.6
	c34.1,0,60.5,23.9,60.5,61.6C1166.8,921,1140.4,947,1106.2,947z"/>
<path class="st0" d="M1382.6,801c-6.7,0-11.6,5.3-11.6,12v16.9c-12.3-20.8-38-30.6-62-30.6c-46.8,0-84.1,33.1-84.1,85.2
	c0,52.1,37.3,86.2,84.1,86.2c23.9,0,49.6-10.9,62-31.7v17.9c0,6.7,4.9,12,11.6,12c6.7,0,11.6-5.3,11.6-12v-144
	C1394.2,806.2,1389.2,801,1382.6,801z M1309,947c-34.1,0-60.5-26-60.5-62.7c0-37.7,26.4-61.6,60.5-61.6c29.6,0,62,21.1,62,61.6
	C1370.9,924.9,1342.4,947,1309,947z"/>
<path class="st0" d="M1527.9,799.2c-19,0-44.3,9.2-54.6,30.6v-16.9c0-6.7-4.9-12-11.6-12s-11.6,5.3-11.6,12v144
	c0,6.7,4.9,12,11.6,12s11.6-5.3,11.6-12v-79.5c0-40.1,28.5-54.9,54.6-54.9c25.4,0,40.1,18.6,40.1,48.9v85.5c0,6.7,4.9,12,11.6,12
	c6.7,0,11.6-5.3,11.6-12v-85.5C1591.7,826.7,1568.1,799.2,1527.9,799.2z"/>
<path class="st1" d="M505,544.7v259.2c0,0-1.5-0.7-4.2-2.2c-17-9.4-79.7-49.5-79.7-126.4C421.2,586.5,505,544.7,505,544.7z"/>
<path class="st2" d="M588.9,675.3c0,76.8-62.7,116.9-79.7,126.4c-2.6,1.5-4.2,2.2-4.2,2.2V544.7C505,544.7,588.9,586.5,588.9,675.3z
	"/>
<path class="st0" d="M505,544.7c0,0-83.9,41.8-83.9,130.6c0,76.8,62.7,116.9,79.7,126.4c2.7,1.5,4.2,2.2,4.2,2.2s1.5-0.7,4.2-2.2
	c17-9.4,79.7-49.5,79.7-126.4C588.9,586.5,505,544.7,505,544.7z M516.7,784.4v-97.7c0-6.5-5.2-11.6-11.6-11.6h0
	c-6.4,0-11.6,5.2-11.6,11.6v97.8c-23.2-17.9-61.4-55.3-61.4-107.2c0-61.8,54.5-106.5,73-120c0,0,0,0,0,0c18.7,13.4,73.1,58,73.1,120
	C578.1,728.9,539.8,766.4,516.7,784.4z"/>
<path class="st0" d="M511.2,533.2l-6.2-3.8l-6,3.8c-3.7,2.2-90.2,56.8-90.2,144c0,75.4,64.4,122.8,84.7,135.8v144
	c0,6.7,4.9,12,11.6,12c6.7,0,11.6-5.3,11.6-12v-144c20.3-13,84.7-60.3,84.7-135.8C601.4,590,514.8,535.4,511.2,533.2z M509.2,801.7
	c-2.6,1.5-4.2,2.2-4.2,2.2s-1.5-0.7-4.2-2.2c-17-9.4-79.7-49.5-79.7-126.4c0-88.8,83.9-130.6,83.9-130.6s83.9,41.8,83.9,130.6
	C588.9,752.2,526.2,792.3,509.2,801.7z"/>
<path class="st1" d="M953.7,673.6l-0.1,14.2l-0.4,56.5l-0.4,56.6l0,4.5c0,0-2-1-5.2-3c-11.3-7.1-37.2-27.4-37-62.7
	C911,694.6,953.7,673.6,953.7,673.6z"/>
<path class="st2" d="M995.9,740.3c-0.2,34.7-25.5,54.5-37.2,61.8c-3.5,2.2-5.8,3.3-5.8,3.3l0-4.5l0.4-56.6l0.4-56.5l0.1-14.2
	C953.7,673.6,996.2,695.2,995.9,740.3z"/>
<path class="st0" d="M953.7,673.6c0,0-42.8,21-43.1,66.1c-0.2,35.3,25.7,55.5,37,62.7c3.2,2,5.2,3,5.2,3s2.3-1.1,5.8-3.3
	c11.7-7.3,37-27.1,37.2-61.8C996.2,695.2,953.7,673.6,953.7,673.6z M965,782.6v-26.7c0.1-6.4-5.1-11.6-11.5-11.6c-0.1,0-0.2,0-0.2,0
	c-6.3,0.1-11.3,5.3-11.3,11.6v26.5c-9.6-9.5-19.6-23.7-19.5-41.4c-0.1-25.4,20.6-45,31.1-53.3c0,0,0,0,0.1,0
	c10.5,8.3,31.1,27.6,31,53.3C984.6,758.8,974.7,773,965,782.6z"/>
<path class="st0" d="M959.7,663.7l-6.1-3.7l-6.1,3.7c-1.9,1.2-48.2,30.3-48.2,77.4c0,37.8,29.5,62.4,42.6,71.4c0,0.1,0,0.3,0,0.4
	v144c0,6.7,4.9,12,11.6,12s11.6-5.3,11.6-12V812.7c8-5.6,22.6-17.2,32.5-34.3c6-10.4,10.3-22.9,10.3-37.2
	C1007.8,694,961.6,664.9,959.7,663.7z M958.7,802.2c-3.5,2.2-5.8,3.3-5.8,3.3s-2-1-5.2-3c-11.3-7.1-37.2-27.4-37-62.7
	c0.3-45.2,43.1-66.1,43.1-66.1s42.5,21.5,42.2,66.7C995.7,775.1,970.4,794.9,958.7,802.2z"/>
</svg>
