<?xml version="1.0" encoding="UTF-8"?><svg id="Layer_1" xmlns="http://www.w3.org/2000/svg" viewBox="0 0 752.42 1108.02"><defs><style>.cls-1,.cls-2{fill:#fff;}.cls-2{font-family:PermanentMarkerPro, 'Permanent Marker Pro';font-size:240.19px;}.cls-3{letter-spacing:0em;}</style></defs><g><circle class="cls-1" cx="376.21" cy="376.21" r="376.21"/><circle cx="376.21" cy="376.21" r="332.54"/><path class="cls-1" d="M527.86,130.82c6.24,3.56,13.36,8.02,21.82,13.36,8.02,5.79,14.25,11.13,19.15,16.48,4.45,5.34,6.68,12.03,6.68,19.15,0,4.01-2.23,8.02-6.68,10.69-4.45,2.67-8.02,4.45-11.58,4.45-6.68,0-16.03-1.78-28.5-4.45-12.03-2.67-23.61-6.68-34.74-10.69-12.92-3.12-26.72-5.79-40.97-7.57s-28.06-2.67-40.98-2.67c-9.35,0-19.6,.45-28.95,2.23-9.35,1.34-20.49,3.56-32.51,7.13-4.45,1.78-14.7,4.9-31.62,10.69-17.37,5.34-30.73,11.13-40.08,16.03-8.46,4.9-14.25,8.91-18.71,11.58-5.34,2.67-10.24,4.45-15.14,4.45-6.68,0-13.36-4.9-20.49-15.59-7.57-10.69-15.59-26.72-26.28-48.55v-5.79c8.46,3.56,16.03,5.79,22.71,7.57,6.24,1.78,13.36,2.23,20.49,2.23,5.34,0,15.14-.89,29.84-4.01,13.81-2.67,29.4-5.34,45.43-9.35,16.03-4.45,35.63-8.46,58.35-11.13,23.16-2.67,41.87-4.45,57.01-4.45,12.92,0,24.94-.45,36.52-.89,12.03-.89,21.38-1.78,28.5-3.12,4.9-1.34,10.69-2.23,15.59-2.23,4.01,0,8.91,1.78,15.14,4.45Zm-106.89,108.38c13.81,4.01,20.49,8.91,20.49,15.14,0,4.9-2.23,9.35-6.68,13.36-4.45,4.01-10.69,7.13-18.26,10.69-8.02,4.01-15.59,6.68-23.61,9.35-7.57,2.67-17.82,6.24-30.29,9.35,8.91,1.78,16.48,4.45,22.71,8.91,6.24,4.45,8.91,8.91,8.91,14.25,0,2.23-.45,5.79-1.78,12.03-1.78,6.24-2.23,11.13-2.23,14.7,8.46-8.02,16.03-15.59,22.71-23.61,6.24-7.57,9.8-12.92,9.8-14.25,0-1.78-.89-4.01-1.78-5.79-1.78-1.78-3.56-4.45-6.24-7.57l2.23-2.23c14.7,.45,28.06,2.67,39.64,7.13,11.58,4.45,17.81,8.91,17.81,13.36,0,4.9-1.78,8.91-5.79,12.03-3.56,3.56-9.35,6.68-15.59,10.69-6.68,4.01-11.58,7.13-15.59,8.91-3.56,2.23-7.57,4.45-11.58,7.13-4.01,3.12-7.57,5.34-11.58,6.68-4.01,2.23-8.02,4.45-11.13,6.24,8.46-.89,20.04-2.67,35.19-5.34,14.7-3.12,24.5-4.01,28.06-4.01,5.34,0,10.24,.45,16.48,1.78,5.34,1.34,11.58,3.56,17.81,6.68,5.79,2.67,11.13,5.79,15.59,9.35,3.56,4.01,5.79,7.57,5.79,11.58,0,3.56-2.23,6.24-7.13,8.46-4.9,2.23-11.13,3.12-17.37,3.12-5.34,0-15.59-.89-30.29-2.67-15.14-1.78-26.28-2.67-33.4-2.67-5.34,0-9.8,0-14.7,.45-4.9,.45-9.35,1.34-13.36,1.78,16.92,17.82,35.63,34.29,57.45,49.44,21.82,15.59,44.54,29.4,69.03,42.31l81.06,40.08-14.7,10.24c-11.13,2.23-22.27,3.56-33.4,4.45-12.03,.89-23.61,1.34-36.52,1.34-9.35,0-17.82-.45-24.94-2.23-7.13-1.34-13.81-3.56-20.04-6.68-2.67,7.57-6.68,20.04-11.58,38.75-5.79,18.26-10.24,33.4-13.81,44.98-4.01,11.58-7.57,20.93-11.13,28.95-4.01,8.46-8.02,12.47-12.03,12.47-6.68,0-12.47-2.67-18.26-8.02-5.34-5.35-11.58-11.58-18.26-18.26h-32.51c-8.02,0-16.92,.45-25.83,1.78-.89,4.45-1.34,7.57-2.23,10.69-1.34,2.23-3.12,3.12-5.79,3.12-3.12,0-6.68-.89-9.35-2.67-2.67-2.23-7.13-5.79-12.47-10.24-5.34-4.45-9.8-9.35-13.36-14.7-3.12-4.9-4.9-10.24-4.9-16.92,0-6.24-.45-12.03-2.23-17.82s-4.01-10.69-6.24-15.59c-2.23-5.34-4.45-8.91-5.79-12.92-2.23-3.56-4.45-7.13-7.57-12.47-2.67-4.45-4.9-8.02-5.79-12.03-1.78-3.56-2.23-7.13-2.23-11.13,0-2.67,4.9-8.02,14.7-14.7,9.8-5.79,18.71-9.35,25.83-9.35,.89,0,2.23,1.78,4.01,5.79,9.35-2.23,17.82-4.45,24.94-6.24,7.13-1.78,13.81-2.67,20.04-3.56-2.67-4.9-5.79-9.35-8.02-13.36-2.23-3.56-3.12-7.57-3.12-11.58,0-2.67,.89-8.46,3.12-17.37,1.78-8.91,3.12-16.03,3.56-22.27-42.76,43.2-75.27,72.15-95.76,86.85-20.49,15.59-41.42,23.61-61.91,23.61-2.67,0-6.24-.45-9.8-2.23-4.01-1.34-7.57-1.78-8.91-1.78,24.94-17.37,48.1-36.08,69.92-56.56,21.82-20.04,41.42-40.97,58.35-61.91-1.34,.45-8.91,3.12-20.93,8.46-12.47,5.34-20.04,8.02-23.61,8.02-4.9,0-8.91-1.34-11.58-5.34-2.67-4.01-5.34-8.46-8.46-14.7-2.67-5.79-4.9-10.24-6.68-14.25-1.34-4.01-1.34-8.02-.45-12.47l1.78-1.34c2.67,.45,7.57,1.34,13.81,3.12,6.24,2.23,11.13,3.56,13.81,3.56,3.12,0,11.13-1.78,24.5-4.45,13.36-3.12,23.16-5.34,28.5-5.79-12.03-3.12-19.6-10.69-22.27-22.27-2.67-11.58-4.9-25.39-6.24-42.31l3.12-.89c14.7,9.8,26.72,19.15,34.29,28.06,7.13,9.8,11.13,19.6,11.13,31.18l18.26-4.45c0-16.03-.45-28.95-2.23-38.3-1.34-9.35-4.9-18.26-10.24-27.17-5.79,1.78-12.47,3.12-19.6,4.45-7.13,.89-13.81,1.78-19.15,1.78-4.45,0-8.91-.89-12.47-1.34-4.45-.45-10.24-1.78-16.92-3.12,32.96-15.14,59.24-28.5,79.28-39.19,19.15-10.69,29.4-17.37,29.4-20.04,0-1.78-.45-4.45-2.23-7.57-1.78-3.56-2.23-5.79-2.23-6.24v-2.23c18.26,1.78,35.19,4.01,48.99,7.57Zm-99.77,314.89c1.78-.89,6.24-2.23,13.36-4.45,6.68-2.23,12.47-4.01,16.03-5.79-.45-6.24-.89-11.58-1.34-15.59-.89-4.01-1.78-6.68-2.23-7.57-5.34,0-11.13,.89-18.71,3.56-7.13,3.12-12.47,4.01-16.48,4.45l9.35,25.39Zm16.92,52.11l14.25-2.23c-.45-4.01-.89-9.8-.89-17.37-.89-7.13-.89-12.03-.89-13.81-3.12,0-7.57-.45-13.81-.89-6.24-.89-9.35-1.34-10.69-1.34l12.03,35.63Zm51.22-91.3c2.23,.45,3.12,2.23,3.12,4.45,0,1.78,0,4.45-.45,8.02-.45,3.56-.45,5.79-.45,7.57,.45-.45,2.23-.45,4.9-.89h5.35c4.01,0,8.02,.45,12.92,2.23,4.9,1.34,8.91,4.9,11.58,9.35,1.34-6.68,2.23-13.36,4.01-19.6,1.34-6.24,1.78-11.13,1.78-13.81,0-1.78-.45-2.67-1.34-3.56-.89-.45-2.23-.45-2.67-.45-4.9,0-11.58,.45-20.49,1.34-8.91,.89-18.26,2.67-28.5,4.45,4.01,0,7.13,.45,10.24,.89Zm-4.01-65.03c-.45,16.03-1.34,29.4-1.78,38.75,8.46-.45,19.15-1.34,32.96-3.12,13.36-1.78,22.71-2.23,28.5-2.23l-58.79-64.58c-.45,4.45-.45,15.14-.89,31.18Zm1.78,136.73c-.89,5.79-.89,10.24-.89,14.25,1.34,0,4.45,0,9.8-.89,4.9-.45,9.35,0,13.36,.89,2.23-5.79,4.45-11.13,6.68-17.37,1.34-6.24,3.56-12.92,6.68-21.38-4.45,1.78-10.24,3.12-16.92,4.01-6.68,1.78-12.92,2.23-18.71,2.23v18.26Z"/></g><text class="cls-2" transform="translate(40.24 1006.89)"><tspan class="cls-3" x="0" y="0">x</tspan><tspan x="119.13" y="0">ICHI</tspan></text></svg>