<?xml version="1.0" encoding="UTF-8"?><svg id="Layer_1" xmlns="http://www.w3.org/2000/svg" viewBox="0 0 1400 1400"><defs><style>.cls-1{fill:#fff;}</style></defs><circle class="cls-1" cx="700" cy="700" r="700"/><circle cx="700" cy="700" r="618.74"/><g><path class="cls-1" d="M982.17,243.4c11.6,6.63,24.86,14.92,40.61,24.86,14.92,10.77,26.52,20.72,35.63,30.66,8.29,9.94,12.43,22.38,12.43,35.63,0,7.46-4.14,14.92-12.43,19.89-8.29,4.97-14.92,8.29-21.55,8.29-12.43,0-29.83-3.31-53.04-8.29-22.38-4.97-43.92-12.43-64.64-19.89-24.03-5.8-49.72-10.77-76.24-14.09s-52.21-4.97-76.24-4.97c-17.4,0-36.46,.83-53.87,4.14-17.4,2.49-38.12,6.63-60.5,13.26-8.29,3.31-27.35,9.12-58.84,19.89-32.32,9.94-57.18,20.72-74.58,29.83-15.75,9.12-26.52,16.57-34.81,21.55-9.94,4.97-19.06,8.29-28.18,8.29-12.43,0-24.86-9.12-38.12-29-14.09-19.89-29-49.72-48.89-90.33v-10.77c15.75,6.63,29.83,10.77,42.26,14.09,11.6,3.31,24.86,4.14,38.12,4.14,9.94,0,28.18-1.66,55.52-7.46,25.69-4.97,54.69-9.94,84.53-17.4,29.83-8.29,66.3-15.75,108.56-20.72,43.09-4.97,77.9-8.29,106.07-8.29,24.03,0,46.41-.83,67.95-1.66,22.38-1.66,39.78-3.31,53.04-5.8,9.12-2.49,19.89-4.14,29-4.14,7.46,0,16.57,3.31,28.18,8.29Z"/><path class="cls-1" d="M783.28,445.07c25.69,7.46,38.12,16.57,38.12,28.18,0,9.12-4.14,17.4-12.43,24.86-8.29,7.46-19.89,13.26-33.98,19.89-14.92,7.46-29,12.43-43.92,17.4-14.09,4.97-33.15,11.6-56.35,17.4,16.57,3.31,30.66,8.29,42.26,16.57,11.6,8.29,16.57,16.57,16.57,26.52,0,4.14-.83,10.77-3.31,22.38-3.31,11.6-4.14,20.72-4.14,27.35,15.75-14.92,29.83-29,42.26-43.92,11.6-14.09,18.23-24.03,18.23-26.52,0-3.31-1.66-7.46-3.31-10.77-3.31-3.31-6.63-8.29-11.6-14.09l4.14-4.14c27.35,.83,52.21,4.97,73.75,13.26,21.55,8.29,33.15,16.57,33.15,24.86,0,9.12-3.31,16.57-10.77,22.38-6.63,6.63-17.4,12.43-29,19.89-12.43,7.46-21.55,13.26-29,16.57-6.63,4.14-14.09,8.29-21.55,13.26-7.46,5.8-14.09,9.94-21.55,12.43-7.46,4.14-14.92,8.29-20.72,11.6,15.75-1.66,37.29-4.97,65.47-9.94,27.35-5.8,45.58-7.46,52.21-7.46,9.94,0,19.06,.83,30.66,3.31,9.94,2.49,21.55,6.63,33.15,12.43,10.77,4.97,20.72,10.77,29,17.4,6.63,7.46,10.77,14.09,10.77,21.55,0,6.63-4.14,11.6-13.26,15.75-9.12,4.14-20.72,5.8-32.32,5.8-9.94,0-29-1.66-56.35-4.97-28.18-3.31-48.89-4.97-62.15-4.97-9.94,0-18.23,0-27.35,.83-9.12,.83-17.4,2.49-24.86,3.31,31.49,33.15,66.3,63.81,106.9,91.99,40.61,29,82.87,54.69,128.45,78.73l150.83,74.58-27.35,19.06c-20.72,4.14-41.44,6.63-62.15,8.29-22.38,1.66-43.92,2.49-67.95,2.49-17.4,0-33.15-.83-46.41-4.14-13.26-2.49-25.69-6.63-37.29-12.43-4.97,14.09-12.43,37.29-21.55,72.1-10.77,33.98-19.06,62.15-25.69,83.7-7.46,21.55-14.09,38.95-20.72,53.87-7.46,15.75-14.92,23.2-22.38,23.2-12.43,0-23.2-4.97-33.98-14.92-9.94-9.95-21.55-21.55-33.98-33.98h-60.5c-14.92,0-31.49,.83-48.06,3.32-1.66,8.29-2.49,14.09-4.14,19.89-2.49,4.14-5.8,5.8-10.77,5.8-5.8,0-12.43-1.66-17.4-4.97-4.97-4.14-13.26-10.77-23.2-19.06-9.94-8.29-18.23-17.4-24.86-27.35-5.8-9.12-9.12-19.06-9.12-31.49,0-11.6-.83-22.38-4.14-33.15s-7.46-19.89-11.6-29c-4.14-9.94-8.29-16.57-10.77-24.03-4.14-6.63-8.29-13.26-14.09-23.2-4.97-8.29-9.12-14.92-10.77-22.38-3.31-6.63-4.14-13.26-4.14-20.72,0-4.97,9.12-14.92,27.35-27.35,18.23-10.77,34.81-17.4,48.06-17.4,1.66,0,4.14,3.32,7.46,10.77,17.4-4.14,33.15-8.29,46.41-11.6,13.26-3.32,25.69-4.97,37.29-6.63-4.97-9.12-10.77-17.4-14.92-24.86-4.14-6.63-5.8-14.09-5.8-21.55,0-4.97,1.66-15.75,5.8-32.32,3.31-16.57,5.8-29.83,6.63-41.44-79.56,80.38-140.05,134.25-178.17,161.6-38.12,29-77.07,43.92-115.19,43.92-4.97,0-11.6-.83-18.23-4.14-7.46-2.49-14.09-3.31-16.57-3.31,46.41-32.32,89.5-67.13,130.11-105.25,40.61-37.29,77.07-76.24,108.56-115.19-2.49,.83-16.57,5.8-38.95,15.75-23.2,9.94-37.29,14.92-43.92,14.92-9.12,0-16.57-2.49-21.55-9.94-4.97-7.46-9.94-15.75-15.75-27.35-4.97-10.77-9.12-19.06-12.43-26.52-2.49-7.46-2.49-14.92-.83-23.2l3.31-2.49c4.97,.83,14.09,2.49,25.69,5.8,11.6,4.14,20.72,6.63,25.69,6.63,5.8,0,20.72-3.31,45.58-8.29,24.86-5.8,43.09-9.94,53.04-10.77-22.38-5.8-36.46-19.89-41.44-41.44-4.97-21.55-9.12-47.24-11.6-78.73l5.8-1.66c27.35,18.23,49.72,35.63,63.81,52.21,13.26,18.23,20.72,36.46,20.72,58.01l33.98-8.29c0-29.83-.83-53.87-4.14-71.27-2.49-17.4-9.12-33.98-19.06-50.55-10.77,3.31-23.2,5.8-36.46,8.29-13.26,1.66-25.69,3.31-35.63,3.31-8.29,0-16.57-1.66-23.2-2.49-8.29-.83-19.06-3.31-31.49-5.8,61.32-28.18,110.22-53.04,147.51-72.93,35.63-19.89,54.69-32.32,54.69-37.29,0-3.31-.83-8.29-4.14-14.09-3.31-6.63-4.14-10.77-4.14-11.6v-4.14c33.98,3.31,65.47,7.46,91.16,14.09Zm-185.63,585.89c3.31-1.66,11.6-4.14,24.86-8.29,12.43-4.14,23.2-7.46,29.83-10.77-.83-11.6-1.66-21.55-2.49-29-1.66-7.46-3.31-12.43-4.14-14.09-9.94,0-20.72,1.66-34.81,6.63-13.26,5.8-23.2,7.46-30.66,8.29l17.4,47.24Zm31.49,96.96l26.52-4.14c-.83-7.46-1.66-18.23-1.66-32.32-1.66-13.26-1.66-22.38-1.66-25.69-5.8,0-14.09-.83-25.69-1.66-11.6-1.66-17.4-2.49-19.89-2.49l22.38,66.3Zm95.3-169.88c4.14,.83,5.8,4.14,5.8,8.29,0,3.31,0,8.29-.83,14.92-.83,6.63-.83,10.77-.83,14.09,.83-.83,4.14-.83,9.12-1.66h9.95c7.46,0,14.92,.83,24.03,4.14,9.12,2.49,16.57,9.12,21.55,17.4,2.49-12.43,4.14-24.86,7.46-36.46,2.49-11.6,3.31-20.72,3.31-25.69,0-3.31-.83-4.97-2.49-6.63-1.66-.83-4.14-.83-4.97-.83-9.12,0-21.55,.83-38.12,2.49s-33.98,4.97-53.04,8.29c7.46,0,13.26,.83,19.06,1.66Zm-7.46-120.99c-.83,29.83-2.49,54.7-3.32,72.1,15.75-.83,35.63-2.49,61.32-5.8,24.86-3.32,42.26-4.14,53.04-4.14l-109.39-120.16c-.83,8.29-.83,28.18-1.66,58.01Zm3.31,254.41c-1.66,10.77-1.66,19.06-1.66,26.52,2.49,0,8.29,0,18.23-1.66,9.12-.83,17.4,0,24.86,1.66,4.14-10.77,8.29-20.72,12.43-32.32,2.49-11.6,6.63-24.03,12.43-39.78-8.29,3.31-19.06,5.8-31.49,7.46-12.43,3.32-24.03,4.14-34.81,4.14v33.98Z"/></g></svg>